<svg xmlns="http://www.w3.org/2000/svg" viewBox="0 0 61.108 47.144">
  <g id="Group_13" data-name="Group 13" transform="translate(93 12)">
    <g id="Group_2" data-name="Group 2" transform="translate(-93 -12)">
      <g id="Group_1" data-name="Group 1" transform="translate(0)">
        <path id="Path_1" data-name="Path 1" d="M59.234,81.617H43.694a2.554,2.554,0,0,0-2.1-3.468L29.706,76.818a2.563,2.563,0,0,0-1.993.636L23.7,81.038,19.052,70.73l4.232-9.53a1.924,1.924,0,0,0-1.941-2.694l-7.682.741a6.068,6.068,0,0,1,1.957,2.515,6.132,6.132,0,0,1,.349,1.125l2.468-.238-2.5,5.629L9.081,71.3l1.569,1.2-5.9-2.191,1.073-1.8A6.1,6.1,0,0,1,3.94,64.158L.271,70.328a1.923,1.923,0,0,0,.983,2.784l9.8,3.64-2.081-.425,5.248,12.537H11.952l-3.68-12.68-4.011-.82L8.851,91.182a1.812,1.812,0,0,0,1.74,1.307l6.169,0v7.416l-4.3,3.514a1.25,1.25,0,1,0,1.581,1.936l2.723-2.223v1.255a1.25,1.25,0,0,0,2.5,0v-1.255l2.723,2.223a1.25,1.25,0,0,0,1.581-1.937l-4.3-3.514v-7.42H25.6a1.812,1.812,0,1,0,0-3.624H22.633l7.641-6.825,2.157.242a1.874,1.874,0,0,0,1.43,3.086h.25v19.024a1.25,1.25,0,0,0,2.5,0V85.367h20v19.024a1.25,1.25,0,0,0,2.5,0V85.367h.125a1.875,1.875,0,0,0,0-3.75Z" transform="translate(-0.001 -58.497)"/>
      </g>
    </g>
    <g id="Group_4" data-name="Group 4" transform="translate(-87.435 -10.84)">
      <g id="Group_3" data-name="Group 3" transform="translate(0 0)">
        <path id="Path_2" data-name="Path 2" d="M55.182,70.951A4.448,4.448,0,1,0,52.8,76.772,4.448,4.448,0,0,0,55.182,70.951Z" transform="translate(-46.63 -68.219)"/>
      </g>
    </g>
    <g id="Group_6" data-name="Group 6" transform="translate(-46.498 7.26)">
      <g id="Group_5" data-name="Group 5" transform="translate(0 0)">
        <path id="Path_3" data-name="Path 3" d="M399.352,219.864h-8.607a1.125,1.125,0,1,0,0,2.25h8.607a1.125,1.125,0,1,0,0-2.25Z" transform="translate(-389.62 -219.864)"/>
      </g>
    </g>
    <g id="Group_8" data-name="Group 8" transform="translate(-46.498 3.652)">
      <g id="Group_7" data-name="Group 7" transform="translate(0 0)">
        <path id="Path_4" data-name="Path 4" d="M399.352,189.636h-8.607a1.125,1.125,0,1,0,0,2.25h8.607a1.125,1.125,0,1,0,0-2.25Z" transform="translate(-389.62 -189.636)"/>
      </g>
    </g>
    <g id="Group_10" data-name="Group 10" transform="translate(-46.498 0.044)">
      <g id="Group_9" data-name="Group 9" transform="translate(0 0)">
        <path id="Path_5" data-name="Path 5" d="M399.352,159.408h-8.607a1.125,1.125,0,1,0,0,2.25h8.607a1.125,1.125,0,1,0,0-2.25Z" transform="translate(-389.62 -159.408)"/>
      </g>
    </g>
    <g id="Group_12" data-name="Group 12" transform="translate(-46.498 -3.564)">
      <g id="Group_11" data-name="Group 11" transform="translate(0 0)">
        <path id="Path_6" data-name="Path 6" d="M399.352,129.18h-8.607a1.125,1.125,0,1,0,0,2.25h8.607a1.125,1.125,0,1,0,0-2.25Z" transform="translate(-389.62 -129.18)"/>
      </g>
    </g>
  </g>
</svg>
